<?xml version="1.0" encoding="UTF-8"?>
<!-- git-merge-16 from GitHub Octicons (https://github.com/primer/octicons),
     used unmodified so a merged PR carries the same mark here as on GitHub.

     MIT License

     Copyright (c) GitHub, Inc.

     Permission is hereby granted, free of charge, to any person obtaining a
     copy of this software and associated documentation files (the "Software"),
     to deal in the Software without restriction, including without limitation
     the rights to use, copy, modify, merge, publish, distribute, sublicense,
     and/or sell copies of the Software, and to permit persons to whom the
     Software is furnished to do so, subject to the following conditions:

     The above copyright notice and this permission notice shall be included in
     all copies or substantial portions of the Software.

     THE SOFTWARE IS PROVIDED "AS IS", WITHOUT WARRANTY OF ANY KIND, EXPRESS OR
     IMPLIED, INCLUDING BUT NOT LIMITED TO THE WARRANTIES OF MERCHANTABILITY,
     FITNESS FOR A PARTICULAR PURPOSE AND NONINFRINGEMENT. IN NO EVENT SHALL
     THE AUTHORS OR COPYRIGHT HOLDERS BE LIABLE FOR ANY CLAIM, DAMAGES OR OTHER
     LIABILITY, WHETHER IN AN ACTION OF CONTRACT, TORT OR OTHERWISE, ARISING
     FROM, OUT OF OR IN CONNECTION WITH THE SOFTWARE OR THE USE OR OTHER
     DEALINGS IN THE SOFTWARE.

     Filled paths, as GTK's symbolic recoloring requires — Octicons are drawn
     as fills already, so the upstream geometry carries over untouched.
-->
<svg xmlns="http://www.w3.org/2000/svg" width="16" height="16" viewBox="0 0 16 16"><path d="M5.45 5.154A4.25 4.25 0 0 0 9.25 7.5h1.378a2.251 2.251 0 1 1 0 1.5H9.25A5.734 5.734 0 0 1 5 7.123v3.505a2.25 2.25 0 1 1-1.5 0V5.372a2.25 2.25 0 1 1 1.95-.218ZM4.25 13.5a.75.75 0 1 0 0-1.5.75.75 0 0 0 0 1.5Zm8.5-4.5a.75.75 0 1 0 0-1.5.75.75 0 0 0 0 1.5ZM5 3.25a.75.75 0 1 0 0 .005V3.25Z"/></svg>
